# xmcd
#
# Track frame offsets:
#	150
#	16764
#	31715
#	48259
#	76287
#	93172
#	108155
#	126401
#	143654
#	161965
#	177360
#	190092
#	209898
#	235675
#	250778
#	267120
#	283410
#	298643
#
# Disc length: 4207 seconds
#
# Revision: 1
# Processed by: cddbd v1.5.1PL0 Copyright (c) Steve Scherf et al.
# Submitted via: audiograbber 1.83.01
#
DISCID=fb106d12
DTITLE=Akrotiri III (2005)  - Akrotiri III (2005) # 1
DYEAR=2005
DGENRE=House
TTITLE0=3-11 Porter - Surround Me With Your Love (Mental Overdrive Mix)
TTITLE1=Reamonn - Sunshine Baby
TTITLE2=Slai - Flamme
TTITLE3=Varano - Dead And Street
TTITLE4=Brian McFaden - Real To Me
TTITLE5=Slow Train - In The Black Of The Night
TTITLE6=Anastacia - Welcome To My Truth
TTITLE7=Vacuum - The Void
TTITLE8=Two Face - Fire In Your Eyes
TTITLE9=Javine - Best Of My Love
TTITLE10=411 - Dumb
TTITLE11=Xzibit feat.Ken Hilson - Hey Now (Mean Muggin Version)
TTITLE12=M.V.P. - Roc Ya Body 'Mic Chack 1,2 (Robi-Rob's Boriqua Anthem Mix)
TTITLE13=Fatboy Slim - The Joker
TTITLE14=Blue feat. Kool and The Gang And Lil Kim - Get Down On It
TTITLE15=Papi Sanchez - Enamorame
TTITLE16=Malu - Amo El Amar (Latin Dance Spanglish)
TTITLE17=Geri - Ride It (Radio Version)
EXTD=
EXTT0=
EXTT1=
EXTT2=
EXTT3=
EXTT4=
EXTT5=
EXTT6=
EXTT7=
EXTT8=
EXTT9=
EXTT10=
EXTT11=
EXTT12=
EXTT13=
EXTT14=
EXTT15=
EXTT16=
EXTT17=
PLAYORDER=
